<?xml version="1.0" encoding="utf-8"?>
<!-- Generator: Adobe Illustrator 25.2.3, SVG Export Plug-In . SVG Version: 6.00 Build 0)  -->
<svg width="101px" version="1.1" id="Capa_1" xmlns="http://www.w3.org/2000/svg" xmlns:xlink="http://www.w3.org/1999/xlink" x="0px" y="0px"
	 viewBox="0 0 98.2 34.3" style="enable-background:new 0 0 98.2 34.3;" xml:space="preserve">
<style type="text/css">
	.st0{fill-rule:evenodd;clip-rule:evenodd;fill:#163A48;}
	
		.st1{fill-rule:evenodd;clip-rule:evenodd;fill:#163A48;stroke:#163A48;stroke-width:0.7059;stroke-linejoin:round;stroke-miterlimit:2.8235;}
	
		.st2{fill-rule:evenodd;clip-rule:evenodd;fill:#163A48;stroke:#163A48;stroke-width:0.7059;stroke-linecap:round;stroke-linejoin:round;stroke-miterlimit:2.8235;}
</style>
<g id="REDISEÑO">
	<g id="logo-wobiz" transform="translate(-100.000000, -27.000000)">
		<g id="Imported-Layers" transform="translate(100.000000, 28.000000)">
			<path id="Fill-1" class="st0" d="M12.3,4.8c-0.2-0.3-0.5-0.5-0.7-0.7c-0.3-0.3-0.6-0.5-0.9-0.7c-0.3-0.2-0.5-0.3-0.6-0.4
				C10,2.8,9.9,2.7,9.9,2.7l0,0c0,0,0.1,0.1,0.2,0.2c0.1,0.1,0.3,0.3,0.5,0.5c0.2,0.2,0.5,0.5,0.8,0.8C11.7,4.6,12,5,12.2,5.4
				c0.1,0.2,0.2,0.5,0.3,0.7c0.1,0.3,0.1,0.5,0.2,0.8c0,0.3,0,0.6-0.1,0.8c-0.1,0.3-0.2,0.5-0.3,0.8c-0.1,0.1-0.2,0.2-0.2,0.4
				C12,9,12,9.1,11.9,9.2c0,0,0,0.1-0.1,0.1l0,0l0,0c0,0,0,0,0,0l0,0l0,0c-0.1,0.1-0.1,0.1-0.2,0.2l0,0l0,0.1l-0.1,0.1
				c-0.1,0.1-0.1,0.1-0.2,0.2c-0.1,0.1-0.1,0.1-0.2,0.2c-0.1,0.1-0.1,0.1-0.2,0.2c-0.1,0.1-0.1,0.1-0.2,0.2
				c-0.1,0.2-0.2,0.3-0.3,0.5c-0.1,0.1-0.1,0.2-0.2,0.2l-0.2,0.2c-0.1,0.1-0.1,0.2-0.1,0.2l-0.1,0.1l-0.1,0.1
				c-0.2,0.3-0.4,0.7-0.5,1c-0.1,0.2-0.2,0.4-0.2,0.5c0,0.1-0.1,0.2-0.1,0.3c0,0.1-0.1,0.2-0.1,0.3c-0.1,0.4-0.2,0.7-0.3,1.1
				c-0.1,0.4-0.2,0.8-0.2,1.1c-0.1,0.8-0.1,1.5-0.1,2.2c0,0.6,0.1,1.2,0.2,1.8c-1,0.6-1.6,1.7-1.6,2.9c0,1.9,1.5,3.4,3.4,3.4
				c1.9,0,3.4-1.5,3.4-3.4c0-1.2-0.6-2.2-1.5-2.8c-0.1-0.3-0.3-0.6-0.4-0.9c-0.2-0.4-0.4-0.9-0.5-1.4c-0.1-0.5-0.2-1.1-0.3-1.7
				c0-0.3,0-0.6,0-0.9c0-0.3,0-0.6,0.1-0.9c0-0.1,0-0.2,0-0.2c0-0.1,0-0.2,0-0.2c0-0.2,0.1-0.3,0.1-0.5c0.1-0.3,0.2-0.6,0.3-1l0-0.1
				l0-0.1c0-0.1,0.1-0.2,0.1-0.2l0.1-0.2c0-0.1,0.1-0.2,0.1-0.2c0.1-0.2,0.1-0.3,0.2-0.5c0-0.1,0.1-0.2,0.1-0.2
				c0-0.1,0.1-0.2,0.1-0.2c0-0.1,0.1-0.2,0.1-0.2c0-0.1,0.1-0.1,0.1-0.2l0.1-0.2l0-0.1c0-0.1,0.1-0.2,0.1-0.2l0-0.1l0,0l0,0
				c0,0,0.1-0.1,0.1-0.1C12.9,9.7,13,9.6,13,9.6c0.1-0.2,0.2-0.3,0.2-0.5c0.1-0.4,0.2-0.7,0.3-1.1c0-0.4,0-0.7-0.1-1.1
				c-0.1-0.3-0.2-0.6-0.3-0.9c-0.1-0.2-0.3-0.5-0.4-0.7C12.3,4.8,12.6,5.1,12.3,4.8z"/>
			<path id="Oval" class="st1" d="M5.4,10.3c1.3,0.5,2.6,0.5,3.8,0.1C10.4,9.9,11.3,9,12,7.8c-1.3-0.5-2.6-0.5-3.8-0.1
				S6,9.1,5.4,10.3z"/>
			<path id="Oval-Copy-8" class="st1" d="M12.5,4.7c1.4-0.2,2.5-0.8,3.4-1.7s1.3-2.2,1.3-3.6c-1.4,0.2-2.5,0.8-3.4,1.7
				C12.9,2.1,12.5,3.3,12.5,4.7z"/>
			<path id="Fill-3" class="st0" d="M15.8,23.4c0,3-2.5,5.5-5.5,5.5c-3.1,0-5.5-2.5-5.5-5.5c0-1.8,1-3.2,2.2-4.4
				c0.2-0.2,0.2-2.2,0.2-3.1c0-0.3-0.5-0.4-0.6-0.3C2.7,16.5,0,19,0,23.4c0,5.7,5.1,9.9,10.3,9.9s10.3-4.2,10.3-9.9
				c0-4.8-3.3-7.3-7.7-8.1c-0.1,0-0.5-0.1-0.6,0.2c-0.3,0.5,0.2,1.9,0.9,3.1C13.2,18.7,15.8,21.4,15.8,23.4z"/>
			<path id="Fill-4" class="st2" d="M38.6,17.8c-0.1-0.4-0.5-0.7-0.9-0.7h-1.5c-0.4,0-0.8,0.3-0.9,0.7l-2.3,7.1
				c-0.1,0.4-0.3,0.4-0.4,0l-2-7.1c-0.1-0.4-0.5-0.7-0.9-0.7h-2c-0.4,0-0.6,0.3-0.5,0.7L30.5,29c0.1,0.4,0.5,0.7,0.9,0.7h2.1
				c0.4,0,0.8-0.3,0.9-0.7l2.2-7.2c0.1-0.4,0.3-0.4,0.4,0l2.2,7.2c0.1,0.4,0.5,0.7,0.9,0.7h2.1c0.4,0,0.8-0.3,0.9-0.7l3.4-11.2
				c0.1-0.4-0.1-0.7-0.5-0.7h-2.1c-0.4,0-0.8,0.3-0.9,0.7l-2,7.1c-0.1,0.4-0.3,0.4-0.4,0L38.6,17.8z"/>
			<path id="Fill-5" class="st2" d="M55.1,16.8c-4.1,0-6.6,3-6.6,6.6c0,3.6,2.5,6.6,6.6,6.6c4.2,0,6.6-3,6.6-6.6
				C61.7,19.8,59.2,16.8,55.1,16.8L55.1,16.8z M55.1,27c-2.1,0-3.2-1.7-3.2-3.7c0-1.9,1.1-3.6,3.2-3.6c2.1,0,3.2,1.7,3.2,3.6
				C58.3,25.4,57.2,27,55.1,27L55.1,27z"/>
			<path id="Fill-6" class="st2" d="M68.2,17.6v-4.5c0-0.4-0.3-0.7-0.7-0.7h-1.9c-0.4,0-0.7,0.3-0.7,0.7V29c0,0.4,0.3,0.7,0.7,0.7
				h1.9c0.4,0,0.7-0.3,0.7-0.5l0,0c0.9,0.5,2.1,0.8,3.3,0.8c4.2,0,6.6-3,6.6-6.6c0-3.6-2.5-6.6-6.6-6.6
				C70.3,16.8,69.1,17.1,68.2,17.6z M68.3,23.4c0-1.9,1.1-3.6,3.2-3.6c2.1,0,3.2,1.7,3.2,3.6c0,2-1.1,3.7-3.2,3.7
				C69.5,27,68.3,25.4,68.3,23.4z"/>
			<path id="Fill-7" class="st2" d="M82.5,11.9c-1.1,0-1.9,0.9-1.9,1.9c0,1.1,0.9,2,1.9,2c1.1,0,2-0.9,2-2
				C84.4,12.7,83.6,11.9,82.5,11.9"/>
			<path id="Fill-8" class="st2" d="M80.8,17.8c0-0.4,0.3-0.7,0.7-0.7h1.9c0.4,0,0.7,0.3,0.7,0.7v11.1c0,0.4-0.3,0.7-0.7,0.7h-1.9
				c-0.4,0-0.7-0.3-0.7-0.7V17.8z"/>
			<path id="Fill-9" class="st2" d="M97.3,20c0.2-0.3,0.4-0.9,0.4-1.3v-0.9c0-0.4-0.3-0.7-0.7-0.7h-8.7c-0.4,0-0.7,0.3-0.7,0.7v1.5
				c0,0.4,0.3,0.7,0.7,0.7h4.3c0.4,0,0.5,0.2,0.3,0.6L88,26.6c-0.2,0.3-0.4,0.9-0.4,1.3V29c0,0.4,0.3,0.7,0.7,0.7h8.8
				c0.4,0,0.7-0.3,0.7-0.7v-1.5c0-0.4-0.3-0.7-0.7-0.7h-4.5c-0.4,0-0.5-0.2-0.3-0.6L97.3,20z"/>
		</g>
	</g>
</g>
</svg>
